<?xml version="1.0" encoding="utf-8"?>
<!-- Generator: Adobe Illustrator 18.1.0, SVG Export Plug-In . SVG Version: 6.00 Build 0)  -->
<svg version="1.1" id="Layer_1" xmlns="http://www.w3.org/2000/svg" xmlns:xlink="http://www.w3.org/1999/xlink" x="0px" y="0px"
	 viewBox="0 0 1500 1500" enable-background="new 0 0 1500 1500" xml:space="preserve">
<g>
	<path fill="#7B6648" d="M1026,996.1c0,6.9-6.6,12.5-13.5,12.5c-6.9,0-13.5-5.6-13.5-12.5V711c-40,12.3-76.8,19.1-117.2,19.1
		c-90,0-173.1-33.2-236.1-87.9C580.6,701.5,493,737.6,398,737.6c-45,0-89-8.2-129-23v326.7c0,16.6,14.6,26.7,31.2,26.7H1023
		c16.6,0,29-10.1,29-26.7V685.6c-13,5.8-26,11.2-26,15.9V996.1z"/>
	<path fill="#D27E3D" d="M357.3,374.3c0,26,21.1,47.1,47.2,47.1c26,0,47.1-21.1,47.1-47.1c0-26-21.1-47.1-47.1-47.1
		C378.4,327.2,357.3,348.3,357.3,374.3z"/>
	<path fill="#D27E3D" d="M521.1,371.2c0-19.3,1.6-38.3,4.5-56.8c-19.8,12.7-33,34.7-33,60c0,25.8,13.8,48.1,34.3,60.7
		C523.2,414.3,521.1,393,521.1,371.2z"/>
	<path fill="#D27E3D" d="M475.7,214.8c0-39.4-31.9-71.3-71.3-71.3c-39.4,0-71.3,31.9-71.3,71.3c0,39.4,31.9,71.3,71.3,71.3
		C443.8,286.1,475.7,254.2,475.7,214.8z"/>
	<path fill="#D27E3D" d="M244.9,303c-39.4,0-71.3,31.9-71.3,71.3c0,39.4,31.9,71.3,71.3,71.3c39.4,0,71.3-31.9,71.3-71.3
		C316.2,335,284.2,303,244.9,303z"/>
	<path fill="#D27E3D" d="M475.7,533.8c0-39.4-31.9-71.3-71.3-71.3c-39.4,0-71.3,31.9-71.3,71.3s31.9,71.3,71.3,71.3
		C443.8,605.1,475.7,573.2,475.7,533.8z"/>
	<path fill="#D27E3D" d="M579.6,567.4c-46.3,42.1-107.7,67.9-175.2,67.9c-144.1,0-261-116.9-261-261c0-144.1,116.9-261,261-261
		c66.3,0,126.6,24.9,172.6,65.6c11-17.3,23.4-33.7,37.1-48.8c-57.3-51.4-133-82.7-216-82.7c-178.8,0-323.7,145-323.7,323.8
		S219.3,695,398.1,695c83,0,158.7-31.3,216-82.7C601.5,598.3,589.9,583.3,579.6,567.4z"/>
	<path fill="#D27E3D" d="M831.6,374.3c0,26,21.1,47.1,47.1,47.1c26,0,47.1-21.1,47.1-47.1c0-26-21.1-47.1-47.1-47.1
		C852.7,327.2,831.6,348.3,831.6,374.3z"/>
	<path fill="#D27E3D" d="M878.7,286.1c39.4,0,71.3-31.9,71.3-71.3c0-39.4-31.9-71.3-71.3-71.3c-39.4,0-71.3,31.9-71.3,71.3
		C807.4,254.2,839.3,286.1,878.7,286.1z"/>
	<path fill="#D27E3D" d="M950,533.8c0-39.4-31.9-71.3-71.3-71.3c-39.4,0-71.3,31.9-71.3,71.3s31.9,71.3,71.3,71.3
		C918.1,605.1,950,573.2,950,533.8z"/>
	<path fill="#D27E3D" d="M790.5,374.3c0-39.4-31.9-71.3-71.3-71.3c-39.4,0-71.3,31.9-71.3,71.3c0,39.4,32,71.3,71.3,71.3
		C758.6,445.6,790.5,413.7,790.5,374.3z"/>
	<path fill="#D27E3D" d="M1203.7,371.2c0-178.8-145-323.8-323.7-323.8c-178.8,0-323.8,145-323.8,323.8S701.2,695,880,695
		C1058.8,695,1203.7,550,1203.7,371.2z M878.7,635.3c-144.1,0-261-116.9-261-261c0-144.1,116.9-261,261-261
		c144.1,0,261,116.9,261,261C1139.7,518.5,1022.9,635.3,878.7,635.3z"/>
	<path fill="#D27E3D" d="M1038.2,303c-39.3,0-71.2,31.9-71.2,71.3c0,39.4,31.9,71.3,71.2,71.3c39.4,0,71.3-31.9,71.3-71.3
		C1109.5,335,1077.6,303,1038.2,303z"/>
	<polygon fill="#7B6648" points="563.8,1081 300.2,1453 398.1,1453 627,1169.3 627,1439 720,1439 720,1161.8 947.7,1453 
		1038.1,1453 782.1,1081 	"/>
	<path fill="#7B6648" d="M1069.2,682h-3.2v-5.2V908h70l207.1,213h2V479.1L1147.3,682H1069.2z M1331.7,521.8l1.9,57.7l-160,97.9
		L1331.7,521.8z"/>
	<rect x="1358" y="483" fill="#7B6648" width="53" height="638"/>
	<polygon fill="#D1C7BA" points="1331.7,521.8 1173.6,677.4 1333.6,579.5 	"/>
</g>
</svg>
